<?xml version="1.0" encoding="UTF-8"?>
<svg version="1.1" xmlns="http://www.w3.org/2000/svg" width="1080" height="1350">
<path d="M0 0 C356.4 0 712.8 0 1080 0 C1080 445.5 1080 891 1080 1350 C723.6 1350 367.2 1350 0 1350 C0 904.5 0 459 0 0 Z " fill="#FEFEFE" transform="translate(0,0)"/>
<path d="M0 0 C14.19 0 28.38 0 43 0 C41.0880736 6.37308801 39.14648948 12.56384154 36.8046875 18.765625 C36.50023209 19.58022186 36.19577667 20.39481873 35.88209534 21.23410034 C35.22567329 22.9894525 34.56782134 24.74427051 33.90866089 26.49859619 C32.48130588 30.29793702 31.0614218 34.10005706 29.64103699 37.90200806 C28.89350955 39.90276825 28.14563092 41.90339726 27.39741516 43.90390015 C23.38483564 54.63468485 19.408086 65.37861963 15.4375 76.125 C15.08846619 77.06890594 14.73943237 78.01281189 14.37982178 78.98532104 C10.4395442 89.64192393 6.51800469 100.30507434 2.62890625 110.98046875 C2.2783165 111.94210937 1.92772675 112.90375 1.56651306 113.89453125 C-0.10732163 118.48642681 -1.77817666 123.07936464 -3.44360352 127.67431641 C-4.03522085 129.29984042 -4.62693087 130.9253307 -5.21875 132.55078125 C-5.48767563 133.29627731 -5.75660126 134.04177338 -6.03367615 134.80986023 C-7.88655506 139.88655506 -7.88655506 139.88655506 -9 141 C-11.73894085 141.08858646 -14.4525327 141.11523479 -17.19140625 141.09765625 C-18.01124496 141.0962413 -18.83108368 141.09482635 -19.67576599 141.09336853 C-22.30471382 141.08775289 -24.93357773 141.07519779 -27.5625 141.0625 C-29.34049357 141.05748701 -31.11848846 141.05292376 -32.89648438 141.04882812 C-37.26435545 141.03777839 -41.63216348 141.02050331 -46 141 C-49.4296444 132.93169137 -52.62864469 124.80653034 -55.65234375 116.578125 C-56.07495987 115.43446472 -56.49757599 114.29080444 -56.93299866 113.11248779 C-58.27016745 109.4925153 -59.60395753 105.87130974 -60.9375 102.25 C-62.26509389 98.65168101 -63.5933903 95.05362233 -64.92202759 91.45568848 C-65.7764496 89.14084478 -66.62996134 86.82566487 -67.48251343 84.51013184 C-69.28788973 79.61066442 -71.10006938 74.71491477 -72.96533203 69.83789062 C-73.25122696 69.08836121 -73.53712189 68.33883179 -73.8316803 67.56658936 C-74.56382256 65.65436218 -75.30223701 63.74453954 -76.04125977 61.83496094 C-77 59 -77 59 -77 56 C-77.66 56 -78.32 56 -79 56 C-79.11474167 56.68403397 -79.22948334 57.36806793 -79.34770203 58.0728302 C-80.10339796 61.4639956 -81.22426792 64.57789125 -82.43676758 67.8347168 C-82.68408127 68.50213394 -82.93139496 69.16955109 -83.186203 69.85719299 C-84.00201067 72.05590532 -84.82318739 74.25256914 -85.64453125 76.44921875 C-86.21673947 77.9874244 -86.78864942 79.52574104 -87.36027527 81.06416321 C-88.55926318 84.28866989 -89.76070676 87.51224651 -90.96411133 90.73510742 C-92.49727112 94.84118864 -94.02613104 98.94885277 -95.55334949 103.05714703 C-97.01966499 107.00092565 -98.48832182 110.94383118 -99.95703125 114.88671875 C-100.23275278 115.62759924 -100.50847431 116.36847973 -100.79255104 117.13181114 C-101.58543293 119.2611258 -102.37999595 121.38980568 -103.17504883 123.51831055 C-103.85003166 125.32769356 -103.85003166 125.32769356 -104.53865051 127.17362976 C-106.30660579 131.80281087 -108.15964833 136.39912081 -110 141 C-122.54 141 -135.08 141 -148 141 C-149.17433594 137.77992188 -150.34867188 134.55984375 -151.55859375 131.2421875 C-159.58864613 109.23237545 -167.63047864 87.22699004 -175.75 65.25 C-176.09311218 64.32100891 -176.43622437 63.39201782 -176.78973389 62.43487549 C-180.62742355 52.04916882 -184.49121783 41.67373042 -188.39453125 31.3125 C-188.74822784 30.37291443 -189.10192444 29.43332886 -189.46633911 28.465271 C-191.15015306 23.99356046 -192.83771213 19.52333092 -194.53222656 15.05566406 C-195.12704688 13.4798531 -195.72177873 11.90400873 -196.31640625 10.328125 C-196.59047806 9.60971436 -196.86454987 8.89130371 -197.14692688 8.15112305 C-199 3.22667875 -199 3.22667875 -199 1 C-184.81 1 -170.62 1 -156 1 C-151.2880334 14.03027218 -146.60614488 27.06805825 -142.03515625 40.1484375 C-141.62590912 41.31836243 -141.21666199 42.48828735 -140.79501343 43.69366455 C-139.11886437 48.48679122 -137.4436284 53.28022186 -135.77416992 58.07568359 C-134.53160983 61.64293444 -133.28383324 65.20832402 -132.03515625 68.7734375 C-131.6581105 69.86071136 -131.28106476 70.94798523 -130.89259338 72.06820679 C-130.54139938 73.06840851 -130.19020538 74.06861023 -129.82836914 75.09912109 C-129.52242325 75.97635834 -129.21647736 76.85359558 -128.90126038 77.75741577 C-127.99935974 80.22241682 -127.99935974 80.22241682 -126 83 C-125.78639328 82.42546585 -125.57278656 81.8509317 -125.35270691 81.25898743 C-107.19680568 32.43002731 -107.19680568 32.43002731 -100.375 14.4375 C-99.93309326 13.27065674 -99.49118652 12.10381348 -99.03588867 10.90161133 C-96.13002953 3.26005907 -96.13002953 3.26005907 -95 1 C-83.78 1 -72.56 1 -61 1 C-55.5407454 15.71101996 -55.5407454 15.71101996 -53.16601562 22.11132812 C-51.56238149 26.43339624 -49.95870547 30.75544877 -48.35473633 35.07739258 C-48.09601431 35.77454943 -47.83729229 36.47170628 -47.57073021 37.18998909 C-47.05202219 38.58770479 -46.53329592 39.98541371 -46.01455116 41.38311577 C-44.74292687 44.80978371 -43.47210956 48.23674721 -42.20297241 51.66433716 C-41.71329368 52.9866801 -41.22359874 54.30901704 -40.73388672 55.63134766 C-40.38069901 56.58508616 -40.38069901 56.58508616 -40.02037621 57.55809212 C-38.58741154 61.42447353 -37.143481 65.28657161 -35.69189453 69.14599609 C-35.35839493 70.03727707 -35.02489532 70.92855804 -34.68128967 71.84684753 C-34.08518728 73.4392492 -33.48542201 75.03028711 -32.88108826 76.61958313 C-31.7833791 79.56213846 -31 81.83069066 -31 85 C-30.34 85 -29.68 85 -29 85 C-28.75918701 83.77651855 -28.51837402 82.55303711 -28.27026367 81.29248047 C-26.89645906 75.13110671 -24.78615987 69.26170402 -22.67578125 63.3203125 C-22.25129196 62.11293427 -21.82680267 60.90555603 -21.38945007 59.66159058 C-20.49233289 57.11051802 -19.59190625 54.56064906 -18.6887207 52.01171875 C-17.55281352 48.80597203 -16.42244171 45.5983133 -15.29432392 42.38981819 C-14.19424272 39.26180022 -13.0913114 36.13479191 -11.98828125 33.0078125 C-11.59320877 31.88730499 -11.19813629 30.76679749 -10.79109192 29.61233521 C-7.28226416 19.70653089 -3.63398612 9.86367662 0 0 Z " fill="#020202" transform="translate(327,625)"/>
<path d="M0 0 C13.2 0 26.4 0 40 0 C40.33 22.11 40.66 44.22 41 67 C44.3 64.69 47.6 62.38 51 60 C54.50390625 58.2578125 54.50390625 58.2578125 57.5625 57.125 C58.57441406 56.73570312 59.58632813 56.34640625 60.62890625 55.9453125 C76.22612719 51.57158427 95.22087932 52.29140381 109.796875 59.35546875 C112.31616113 60.77924712 114.6522238 62.31009454 117 64 C118.02673828 64.71736328 118.02673828 64.71736328 119.07421875 65.44921875 C130.70298904 74.51920265 136.12676568 88.01290336 138.53392029 102.13160706 C139.06083101 106.50488841 139.13267711 110.74949295 139.11352539 115.14819336 C139.11367142 116.03679047 139.11381744 116.92538757 139.1139679 117.84091187 C139.11327518 120.75724794 139.10551297 123.67351893 139.09765625 126.58984375 C139.09578979 128.62008123 139.09436696 130.65031916 139.09336853 132.68055725 C139.08956131 138.00864926 139.07974642 143.33671374 139.06866455 148.66479492 C139.05660724 155.06591473 139.05203964 161.46704377 139.04621124 167.86817169 C139.03653365 177.57880023 139.01736453 187.28936846 139 197 C125.8 197 112.6 197 99 197 C98.97421875 191.07546875 98.9484375 185.1509375 98.921875 179.046875 C98.89668182 175.27339541 98.87032991 171.49999401 98.83984375 167.7265625 C98.79165935 161.74902137 98.74755832 155.77166145 98.72900391 149.79394531 C98.71375965 144.96967188 98.67917776 140.14587544 98.63169098 135.32181549 C98.61695684 133.48965879 98.60896361 131.65743395 98.60811615 129.8252182 C98.6672211 111.19305547 98.6672211 111.19305547 89.68115234 95.38452148 C84.03645054 90.73579887 78.31824425 89.29644088 71.125 89.4375 C70.33706055 89.44773193 69.54912109 89.45796387 68.73730469 89.46850586 C60.45988843 89.76948731 54.37564352 92.17358111 48.625 98.25 C42.81727857 105.76877816 40.86596107 113.66297322 40.79467773 122.98144531 C40.78477814 123.7818222 40.77487854 124.5821991 40.76467896 125.40682983 C40.73314058 128.04723166 40.70833687 130.68765147 40.68359375 133.328125 C40.6630176 135.16087303 40.64202096 136.99361639 40.62062073 138.82635498 C40.56546829 143.64644582 40.51602892 148.466579 40.46777344 153.28674316 C40.40866856 159.07210922 40.34247818 164.857398 40.27747345 170.6427002 C40.17954984 179.42841954 40.09063501 188.21418881 40 197 C26.8 197 13.6 197 0 197 C0 131.99 0 66.98 0 0 Z " fill="#000000" transform="translate(393,568)"/>
<path d="M0 0 C14.52 0 29.04 0 44 0 C47.54476891 7.08953783 50.99541489 14.0302719 54.06640625 21.3046875 C54.4226709 22.13977341 54.77893555 22.97485931 55.14599609 23.83525085 C55.9006262 25.60514986 56.653625 27.37574521 57.40505981 29.14700317 C58.97914716 32.85700508 60.56179088 36.56333756 62.14378357 40.26997375 C63.33628988 43.06454886 64.52752575 45.85966337 65.71875 48.65478516 C68.7011248 55.64775025 71.70208245 62.63261741 74.71920776 69.61065674 C75.27938837 70.90722357 75.83857966 72.20421831 76.39675903 73.50164795 C77.15937584 75.2742105 77.92529064 77.0453531 78.69140625 78.81640625 C79.11623291 79.80068604 79.54105957 80.78496582 79.97875977 81.79907227 C80.8132632 83.92786282 80.8132632 83.92786282 82 85 C82.22835541 84.37091232 82.45671082 83.74182465 82.69198608 83.09367371 C84.8954237 77.02399989 87.09973182 70.95464292 89.30490685 64.88560009 C90.43727609 61.76902757 91.56926658 58.65231882 92.70068359 55.53540039 C97.63419551 41.94481533 102.58817143 28.36210232 107.6015625 14.80078125 C108.0289975 13.64273483 108.4564325 12.48468842 108.89682007 11.29154968 C109.48664169 9.69957512 109.48664169 9.69957512 110.08837891 8.07543945 C110.43446198 7.14053177 110.78054504 6.20562408 111.13711548 5.24238586 C112 3 112 3 113 1 C127.19 1 141.38 1 156 1 C155.07106154 5.64469232 153.65718999 9.71184187 151.90258789 14.07324219 C151.58281636 14.87789162 151.26304483 15.68254105 150.93358326 16.51157379 C149.86731736 19.19163784 148.79498021 21.86922972 147.72265625 24.546875 C146.96464478 26.44880609 146.20701322 28.35088862 145.44973755 30.25311279 C143.41430033 35.36266163 141.37352151 40.47005971 139.33123398 45.57687378 C137.21738595 50.86364526 135.10654709 56.15161808 132.99536133 61.43945312 C130.44363954 67.83032256 127.8914524 74.22100415 125.33714294 80.61083984 C120.51568156 92.67538387 115.72008349 104.74963896 110.95894814 116.83811188 C109.19204038 121.32078235 107.41867961 125.80090365 105.64495373 130.28087997 C104.29199309 133.69974714 102.94335772 137.1201828 101.60501099 140.5447998 C85.97193994 180.52571611 85.97193994 180.52571611 70.8125 188.4375 C69.55192034 188.9826822 68.28173414 189.50660127 67 190 C66.0925 190.37125 65.185 190.7425 64.25 191.125 C53.75980387 193.94928357 43.54164875 194.25520033 32.75 194.125 C27.8825 194.08375 23.015 194.0425 18 194 C18 182.45 18 170.9 18 159 C30 158.6875 30 158.6875 33.734375 158.61206055 C41.33448304 158.35917483 47.37181312 157.61566961 53.6875 153.0625 C57.43385479 148.10111122 61.35874785 141.60612709 60.72290039 135.21459961 C59.93617225 131.71617024 58.74837541 128.79053265 57.25390625 125.53125 C56.97159653 124.91117065 56.6892868 124.29109131 56.39842224 123.65222168 C55.46042644 121.59804204 54.51170649 119.54902073 53.5625 117.5 C52.89090911 116.03662667 52.21969342 114.57308111 51.54882812 113.109375 C46.08623011 101.22343741 40.47928964 89.40566065 34.85494995 77.59561157 C29.1749019 65.66825168 23.62971639 53.68812863 18.20407104 41.64300537 C13.48201429 31.16190607 8.60023576 20.77631969 3.50244141 10.47143555 C3.0388623 9.52437744 2.5752832 8.57731934 2.09765625 7.6015625 C1.48676147 6.36913818 1.48676147 6.36913818 0.86352539 5.11181641 C0 3 0 3 0 0 Z " fill="#010101" transform="translate(547,625)"/>
<path d="M0 0 C0.85851562 0.26683594 1.71703125 0.53367187 2.6015625 0.80859375 C15.76731762 5.39418957 25.20791095 15.94832392 31.3125 28.1875 C37.26089002 42.36402546 37.41788102 56.2488596 37.29296875 71.37109375 C37.28735966 73.38989443 37.28309579 75.40869924 37.28010559 77.42750549 C37.26876006 82.68982617 37.23938389 87.95189054 37.20599365 93.21411133 C37.1696121 99.55530757 37.15608252 105.89659046 37.13863373 112.23786163 C37.10973854 121.82541826 37.05217996 131.41241473 37 141 C23.47 141 9.94 141 -4 141 C-4.02578125 134.83570313 -4.0515625 128.67140625 -4.078125 122.3203125 C-4.10330945 118.40100083 -4.12965469 114.48176511 -4.16015625 110.5625 C-4.2083956 104.34993257 -4.25247624 98.13754107 -4.27099609 91.92480469 C-4.28620744 86.91251595 -4.3207323 81.90068934 -4.36830902 76.88860703 C-4.38307673 74.98222764 -4.39103835 73.07578225 -4.39188385 71.16934586 C-4.40332891 58.29586401 -4.6847822 47.41319772 -14.11328125 37.62890625 C-20.38838598 32.21126925 -28.17126521 32.28301615 -36.08203125 32.59375 C-43.6945156 33.38308038 -48.75236671 36.3456255 -53.9375 41.875 C-59.88691257 49.30826606 -61.13435428 56.83855122 -61.20532227 66.18676758 C-61.21522186 66.99704407 -61.22512146 67.80732056 -61.23532104 68.64215088 C-61.26680619 71.30958169 -61.29164193 73.97703029 -61.31640625 76.64453125 C-61.336987 78.49827018 -61.35798377 80.35200454 -61.37937927 82.20573425 C-61.43448417 87.07677497 -61.48394439 91.94785724 -61.53222656 96.81896973 C-61.5913752 102.66776813 -61.65753927 108.51649087 -61.72252655 114.36522675 C-61.82039029 123.24343816 -61.90934605 132.12169885 -62 141 C-75.53 141 -89.06 141 -103 141 C-103 94.47 -103 47.94 -103 0 C-93.1 0 -83.2 0 -73 0 C-69.625 10.125 -69.625 10.125 -69 15 C-68.18917969 14.33613281 -67.37835937 13.67226563 -66.54296875 12.98828125 C-47.65966536 -2.1982148 -23.42381537 -7.93387295 0 0 Z " fill="#030303" transform="translate(829,625)"/>
<path d="M0 0 C5.02761266 3.69301003 8.31116877 7.94007618 10 14 C10.8567636 21.65732465 10.44337154 28.52111748 6 35 C0.90341073 40.66046723 -3.85105401 43.52056624 -11.515625 44.40625 C-20.30731247 44.62696182 -26.17353585 43.73640999 -33 38 C-38.1224123 32.8775877 -39.29595918 27.22286566 -39.375 20.125 C-39.2486002 13.06148203 -38.19976866 8.53999723 -33.45703125 3.29296875 C-23.63567814 -5.94404757 -11.66844797 -5.99285847 0 0 Z " fill="#020202" transform="translate(934,724)"/>
</svg>
